<svg xmlns="http://www.w3.org/2000/svg" width="542" height="461" viewBox="0 0 542 461" version="1.1">
	<path d="M 119.994 94.934 C 104.943 99.512, 95.229 117.407, 93.629 143.500 L 93.139 151.500 95.440 140.500 C 101.519 111.437, 110.659 99.027, 126 99.006 C 134.057 98.995, 150.350 109.995, 162.570 123.694 C 183.338 146.977, 209.257 185.219, 232.078 226.249 C 235.060 231.611, 237.838 235.998, 238.250 235.999 C 238.662 235.999, 239 231.302, 239 225.560 L 239 215.121 233.025 205.541 C 219.780 184.302, 200.612 157.618, 185.654 139.594 C 157.256 105.375, 135.135 90.329, 119.994 94.934 M 390 113.600 C 379.370 116.437, 363.082 125.604, 351.980 134.999 L 348.461 137.977 344.163 135.850 C 340.389 133.984, 339.384 133.868, 335.928 134.903 C 333.756 135.554, 331.260 137.199, 330.360 138.574 C 328.232 141.822, 328.275 148.244, 330.447 151.560 L 332.167 154.185 324.810 161.842 C 313.627 173.482, 304 184.594, 304 185.863 C 304 186.488, 305.063 187, 306.363 187 C 308.121 187, 312.414 183.062, 323.113 171.635 C 335.422 158.489, 338.118 156.102, 341.778 155.113 C 345.950 153.986, 349.986 149.609, 349.996 146.202 C 350.001 144.444, 353.778 141.163, 364.673 133.451 C 378.551 123.628, 390.662 119, 402.493 119 C 409.350 119, 413.651 120.879, 418.715 126.088 C 423.726 131.242, 430 142.414, 430 146.182 C 430 147.837, 430.841 150.386, 431.869 151.846 C 433.494 154.154, 434.663 156.834, 435.646 160.500 C 435.793 161.050, 436.949 167.125, 438.216 174 L 440.517 186.500 444.382 186.818 L 448.247 187.135 447.549 181.318 C 446.799 175.074, 443.609 159.627, 442.476 156.750 C 441.987 155.511, 442.269 155, 443.438 155 C 444.347 155, 446.195 153.895, 447.545 152.545 C 449.473 150.618, 450 149.055, 450 145.268 C 450 142.549, 449.330 139.488, 448.464 138.252 C 446.483 135.424, 440.324 133.547, 437.050 134.774 C 434.815 135.611, 434.282 135.202, 430.964 130.096 C 426.507 123.238, 419.286 116.487, 413.690 113.946 C 408.571 111.622, 397.990 111.467, 390 113.600 M 241 213.500 L 241 270 250 270 L 259 270 259 258.736 L 259 247.472 265.080 240.736 C 268.423 237.031, 271.511 234, 271.940 234 C 272.370 234, 274.651 237.037, 277.010 240.750 C 279.369 244.463, 284.494 252.547, 288.399 258.715 L 295.500 269.930 305.750 269.965 C 311.557 269.985, 316 269.590, 316 269.053 C 316 268.211, 308.190 255.790, 290.692 228.799 L 285.051 220.098 299.526 204.870 C 307.487 196.495, 314 189.273, 314 188.821 C 314 188.370, 309.617 188, 304.260 188 L 294.520 188 276.760 205.740 L 259 223.479 259 190.240 L 259 157 250 157 L 241 157 241 213.500 M 84 216.538 L 84 270.075 93.250 269.788 L 102.500 269.500 102.759 216.250 L 103.018 163 93.509 163 L 84 163 84 216.538 M 159.292 170.251 C 152.956 184.571, 138.762 216.785, 132.306 231.500 C 128.686 239.750, 123.536 251.398, 120.862 257.385 C 118.188 263.371, 116 268.675, 116 269.171 C 116 269.667, 120.381 269.944, 125.736 269.786 L 135.473 269.500 140.405 257.734 L 145.338 245.968 171.791 246.234 L 198.243 246.500 202.955 258 L 207.666 269.500 216.504 269.791 C 221.365 269.952, 225.932 269.856, 226.654 269.579 C 228.051 269.043, 228.280 269.635, 214.225 237.500 C 210.375 228.700, 203.404 212.725, 198.732 202 C 194.060 191.275, 188.307 178.113, 185.947 172.750 L 181.655 163 172.078 163.001 L 162.500 163.002 159.292 170.251 M 170.136 187.087 C 168.506 191.280, 162.365 206.098, 157.597 217.343 C 155.069 223.307, 153 228.369, 153 228.593 C 153 228.817, 161.325 229, 171.500 229 C 181.675 229, 190 228.792, 190 228.537 C 190 227.857, 186.188 218.126, 184.109 213.500 C 183.120 211.300, 180.139 204.325, 177.485 198 C 174.830 191.675, 172.302 186.089, 171.866 185.587 C 171.427 185.080, 170.657 185.748, 170.136 187.087 M 330.704 188.630 C 330.317 189.017, 330 207.483, 330 229.667 L 330 270 339.011 270 L 348.022 270 347.761 229.250 L 347.500 188.500 339.454 188.213 C 335.028 188.055, 331.091 188.242, 330.704 188.630 M 373.667 188.667 C 373.300 189.033, 373 207.483, 373 229.667 L 373 270 382 270 L 391 270 391 248.682 C 391 223.229, 391.846 219.101, 398.411 212.536 C 402.856 208.091, 406.206 206.607, 414.250 205.520 L 419 204.877 419 196.439 L 419 188 415.538 188 C 409.322 188, 400.969 191.899, 395.788 197.218 L 391 202.133 391 195.067 L 391 188 382.667 188 C 378.083 188, 374.033 188.300, 373.667 188.667 M 433 228.960 L 433 270 441.511 270 L 450.022 270 449.761 229.250 L 449.500 188.500 441.250 188.210 L 433 187.919 433 228.960 M 261 264.868 C 261 270.328, 260.666 271.924, 259.471 272.177 C 254.164 273.299, 302.167 325.014, 324.261 341.976 C 335.082 350.283, 349.608 358.954, 358 362.115 C 392.948 375.279, 418.228 360.249, 432.632 317.743 C 437.713 302.751, 444 278.949, 444 274.709 C 444 272.014, 443.810 271.899, 439.844 272.193 L 435.688 272.500 432.928 283.745 C 429.272 298.646, 422.522 318.865, 418.383 327.314 C 409.154 346.154, 398.540 354.905, 383.847 355.787 C 373.849 356.386, 367.668 354.895, 355.500 348.945 C 331.601 337.260, 298.333 305.963, 270.205 268.703 C 266.210 263.412, 262.505 258.812, 261.971 258.482 C 261.378 258.116, 261 260.605, 261 264.868 M 221.482 280.092 C 204.095 298.687, 184.010 318.033, 175.123 324.748 C 168.909 329.442, 156.404 335.816, 148.168 338.486 C 140.024 341.127, 126.799 340.893, 120.689 338 C 108.380 332.172, 101.407 319.391, 97.504 295.500 L 96.033 286.500 96.550 294 C 97.241 304.032, 97.811 307.570, 99.691 313.500 C 103.740 326.268, 111.341 336.100, 120.286 340.139 C 127.674 343.474, 141.544 343.441, 151.500 340.065 C 171.436 333.304, 182.163 325.005, 219.250 287.642 C 233.778 273.007, 239 267.118, 239 265.373 C 239 264.068, 238.655 263, 238.232 263 C 237.810 263, 230.273 270.692, 221.482 280.092" stroke="none" fill="#1a5fb4" fill-rule="evenodd"/>
</svg>